# xmcd CD database file generated by OrangeCD 6.1
#
# Track frame offsets:
#	150
#	14352
#	30276
#	42239
#	56888
#	71026
#	85377
#	106050
#	128483
#	143759
#	155951
#	170765
#	185800
#	203966
#	217823
#	230777
#	247742
#	263561
#	278414
#	306048
#
# Disc length: 4266 seconds
#
# Revision: 0
# Processed by: cddbd v1.5.2PL0 Copyright (c) Steve Scherf et al.
# Submitted via: OrangeCD 6.1
#
DISCID=1810a814
DTITLE=Brenda Holloway - My Love Is your Love [CD1]
DYEAR=2003
DGENRE=Soul
TTITLE0=On The Real Side
TTITLE1=Lend A Hand
TTITLE2=Stay Close To Me
TTITLE3=I Got A Bone To Pick With You
TTITLE4=Reconsider
TTITLE5=When I'm Gone
TTITLE6=Be A Man
TTITLE7=Give Me A Little Inspiration
TTITLE8=He's My Kinda Fella
TTITLE9=Love Ans Desire
TTITLE10=Starting The Hurt All Over Again
TTITLE11=Hung Up On Your Love
TTITLE12=You Didn't Say A Word
TTITLE13=Train Keep On Movin'
TTITLE14=I'm Gonna Love You
TTITLE15=So Soon
TTITLE16=I Still Love You
TTITLE17=My Love Is Your Love
TTITLE18=Cathedrals
TTITLE19=Cashing In
EXTD=
EXTT0=
EXTT1=
EXTT2=
EXTT3=
EXTT4=
EXTT5=
EXTT6=
EXTT7=
EXTT8=
EXTT9=
EXTT10=
EXTT11=
EXTT12=
EXTT13=
EXTT14=
EXTT15=
EXTT16=
EXTT17=
EXTT18=
EXTT19=
PLAYORDER=
